<svg width="260" height="48" viewBox="0 0 260 48" fill="none" xmlns="http://www.w3.org/2000/svg">
<g clip-path="url(#clip0_152_483)">
<path d="M22.2979 0C24.5106 0 26.5532 0.170213 28.4255 0.680851C30.2979 1.02128 31.8298 1.70213 33.1915 2.55319C34.5532 3.40426 35.5745 4.59574 36.2553 6.12766C36.9362 7.65957 37.2766 9.53192 37.2766 11.5745C37.2766 13.9574 36.766 16 35.5745 17.5319C34.5532 19.0638 32.8511 20.4255 30.8085 21.4468C33.7021 22.2979 35.9149 23.8298 37.2766 25.8723C38.6383 27.9149 39.4894 30.4681 39.4894 33.3617C39.4894 35.7447 38.9787 37.7872 38.1277 39.4894C37.2766 41.1915 35.9149 42.7234 34.383 43.7447C32.8511 44.766 30.9787 45.617 28.9362 46.1277C26.8936 46.6383 24.8511 46.9787 22.8085 46.9787H0V0H22.2979ZM20.9362 19.0638C22.8085 19.0638 24.3404 18.5532 25.5319 17.7021C26.7234 16.8511 27.234 15.3191 27.234 13.4468C27.234 12.4255 27.0638 11.4043 26.7234 10.7234C26.383 10.0426 25.8723 9.53192 25.1915 9.02128C24.5106 8.68085 23.8298 8.34043 22.9787 8.17021C22.1277 8 21.2766 8 20.2553 8H10.383V19.0638H20.9362ZM21.4468 39.1489C22.4681 39.1489 23.4894 38.9787 24.3404 38.8085C25.1915 38.6383 26.0426 38.2979 26.7234 37.7872C27.4043 37.2766 27.9149 36.766 28.4255 35.9149C28.766 35.0638 29.1064 34.0426 29.1064 32.8511C29.1064 30.4681 28.4255 28.766 27.0638 27.5745C25.7021 26.5532 23.8298 26.0426 21.617 26.0426H10.383V39.1489H21.4468ZM54.2979 38.9787C55.6596 40.3404 57.7021 41.0213 60.4255 41.0213C62.2979 41.0213 64 40.5106 65.3617 39.6596C66.7234 38.6383 67.5745 37.617 67.9149 36.5957H76.2553C74.8936 40.6809 72.8511 43.5745 70.1277 45.4468C67.4043 47.1489 64.1702 48.1702 60.2553 48.1702C57.5319 48.1702 55.1489 47.6596 52.9362 46.8085C50.7234 45.9574 49.0213 44.766 47.4894 43.0638C45.9574 41.5319 44.766 39.6596 44.0851 37.4468C43.234 35.234 42.8936 32.8511 42.8936 30.1277C42.8936 27.5745 43.234 25.1915 44.0851 22.9787C44.9362 20.766 46.1277 18.8936 47.6596 17.1915C49.1915 15.6596 51.0638 14.2979 53.1064 13.4468C55.3191 12.5957 57.5319 12.0851 60.2553 12.0851C63.1489 12.0851 65.7021 12.5957 67.9149 13.7872C70.1277 14.9787 71.8298 16.3404 73.1915 18.383C74.5532 20.2553 75.5745 22.4681 76.2553 24.8511C76.5957 27.234 76.766 29.617 76.5957 32.3404H51.9149C51.9149 35.0638 52.9362 37.617 54.2979 38.9787ZM65.0213 21.1064C63.8298 19.9149 61.9574 19.234 59.7447 19.234C58.2128 19.234 57.0213 19.5745 56 20.0851C54.9787 20.5957 54.2979 21.2766 53.617 21.9574C52.9362 22.6383 52.5957 23.4894 52.4255 24.3404C52.2553 25.1915 52.0851 25.8723 52.0851 26.5532H67.4042C67.0638 24 66.2128 22.2979 65.0213 21.1064ZM89.8723 0V17.7021H90.0426C91.234 15.6596 92.766 14.2979 94.6383 13.4468C96.5106 12.5957 98.2128 12.0851 100.085 12.0851C102.638 12.0851 104.681 12.4255 106.213 13.1064C107.745 13.7872 109.106 14.8085 109.957 16C110.809 17.1915 111.489 18.7234 111.83 20.4255C112.17 22.1277 112.34 24 112.34 26.2128V47.1489H102.979V27.9149C102.979 25.0213 102.468 22.9787 101.617 21.617C100.766 20.2553 99.234 19.5745 97.0213 19.5745C94.4681 19.5745 92.5957 20.4255 91.5745 21.7872C90.383 23.3191 89.8723 25.8723 89.8723 29.2766V47.1489H80.5106V0H89.8723ZM119.149 18.0426C120.17 16.5106 121.362 15.4894 122.894 14.4681C124.426 13.617 126.128 12.9362 128 12.5957C129.872 12.2553 131.745 12.0851 133.617 12.0851C135.319 12.0851 137.021 12.2553 138.894 12.4255C140.596 12.5957 142.298 13.1064 143.66 13.7872C145.191 14.4681 146.213 15.4894 147.234 16.6809C148.085 17.8723 148.596 19.5745 148.596 21.617V39.4894C148.596 41.0213 148.766 42.5532 148.936 43.9149C149.106 45.2766 149.617 46.4681 150.128 47.1489H140.596C140.255 46.8085 140.085 46.1277 139.915 45.617C139.745 45.1064 139.745 44.4255 139.745 43.9149C138.213 45.4468 136.511 46.4681 134.468 47.1489C132.426 47.8298 130.383 48 128.34 48C126.638 48 125.277 47.8298 123.745 47.3191C122.383 46.9787 121.191 46.2979 120 45.4468C118.979 44.5957 118.128 43.5745 117.447 42.2128C116.936 40.8511 116.596 39.4894 116.596 37.617C116.596 35.7447 116.936 34.0426 117.617 32.8511C118.298 31.6596 119.149 30.6383 120.17 29.7872C121.191 29.1064 122.553 28.4255 123.915 28.0851C125.277 27.7447 126.638 27.4043 128.17 27.234L132.255 26.7234C133.617 26.5532 134.809 26.383 135.83 26.2128C136.851 25.8723 137.702 25.5319 138.383 25.0213C139.064 24.5106 139.234 23.8298 139.234 22.8085C139.234 21.7872 139.064 20.9362 138.723 20.4255C138.383 19.9149 137.872 19.4043 137.362 19.0638C136.851 18.7234 136.17 18.5532 135.489 18.383C134.809 18.2128 133.957 18.2128 133.106 18.2128C131.234 18.2128 129.872 18.5532 128.851 19.4043C127.83 20.2553 127.149 21.617 126.979 23.3191H117.617C117.617 21.2766 118.298 19.4043 119.149 18.0426ZM137.702 31.3191C137.191 31.4894 136.511 31.6596 135.83 31.8298C135.149 32 134.468 32 133.617 32.1702C132.936 32.3404 132.085 32.3404 131.404 32.5106L129.362 33.0213C128.681 33.1915 128 33.5319 127.66 33.8723C127.149 34.2128 126.809 34.7234 126.468 35.234C125.957 35.9149 125.957 36.5957 125.957 37.4468C125.957 38.2979 126.128 38.9787 126.468 39.4894C126.809 40 127.149 40.5106 127.66 40.8511C128.17 41.1915 128.851 41.3617 129.532 41.5319C130.213 41.7021 130.894 41.7021 131.745 41.7021C133.617 41.7021 134.979 41.3617 136 40.8511C137.021 40.1702 137.702 39.4894 138.213 38.6383C138.723 37.7872 139.064 36.9362 139.064 36.0851C139.234 35.234 139.234 34.5532 139.234 34.0426V30.4681C138.723 30.8085 138.213 31.1489 137.702 31.3191ZM162.723 12.9362V17.7021H162.894C164.085 15.6596 165.617 14.2979 167.489 13.4468C169.362 12.5957 171.404 12.0851 173.277 12.0851C175.83 12.0851 177.872 12.4255 179.404 13.1064C181.106 13.7872 182.298 14.8085 183.149 16C184 17.1915 184.681 18.7234 185.191 20.4255C185.532 22.1277 185.702 24 185.702 26.2128V47.1489H176.34V27.9149C176.34 25.0213 175.83 22.9787 174.979 21.617C174.128 20.2553 172.596 19.4043 170.213 19.4043C167.66 19.4043 165.787 20.4255 164.596 21.9574C163.404 23.4894 162.894 26.0426 162.894 29.4468V47.3191H153.532V12.9362H162.723ZM206.638 19.0638C205.106 19.0638 203.915 19.4043 202.894 20.0851C201.872 20.766 201.021 21.617 200.34 22.8085C199.66 23.8298 199.319 25.0213 198.979 26.383C198.638 27.7447 198.638 28.9362 198.638 30.2979C198.638 31.4894 198.809 32.8511 198.979 34.0426C199.319 35.4043 199.66 36.4255 200.34 37.4468C201.021 38.4681 201.702 39.3191 202.723 40C203.745 40.6809 204.936 41.0213 206.468 41.0213C208.681 41.0213 210.383 40.3404 211.745 39.1489C212.936 37.9574 213.787 36.2553 213.957 34.0426H222.979C222.298 38.6383 220.596 42.0426 217.702 44.4255C214.809 46.8085 211.064 48 206.468 48C203.915 48 201.532 47.4894 199.489 46.6383C197.277 45.7872 195.574 44.5957 194.043 43.0638C192.511 41.5319 191.319 39.6596 190.468 37.617C189.617 35.4043 189.277 33.1915 189.277 30.6383C189.277 27.9149 189.617 25.5319 190.468 23.3191C191.319 21.1064 192.34 19.0638 193.872 17.3617C195.404 15.6596 197.277 14.4681 199.319 13.4468C201.532 12.5957 203.915 12.0851 206.638 12.0851C208.681 12.0851 210.553 12.4255 212.426 12.9362C214.298 13.4468 216 14.2979 217.362 15.3191C218.894 16.3404 220.085 17.7021 220.936 19.4043C221.787 20.9362 222.298 22.9787 222.468 25.1915H213.277C212.936 21.1064 210.723 19.0638 206.638 19.0638ZM50.0426 3.23404H69.1064V7.82979H50.0426V3.23404ZM237.106 38.9787C238.468 40.3404 240.681 41.0213 243.234 41.0213C245.106 41.0213 246.809 40.5106 248.17 39.6596C249.532 38.6383 250.383 37.617 250.723 36.5957H258.894C257.532 40.6809 255.489 43.5745 252.766 45.4468C250.043 47.1489 246.808 48.1702 242.894 48.1702C240.17 48.1702 237.787 47.6596 235.574 46.8085C233.362 45.9574 231.66 44.766 230.128 43.0638C228.596 41.5319 227.404 39.6596 226.723 37.4468C225.872 35.234 225.532 32.8511 225.532 30.1277C225.532 27.5745 225.872 25.1915 226.723 22.9787C227.574 20.766 228.766 18.8936 230.298 17.1915C231.83 15.6596 233.702 14.2979 235.745 13.4468C237.957 12.5957 240.34 12.0851 242.894 12.0851C245.787 12.0851 248.34 12.5957 250.383 13.7872C252.596 14.9787 254.298 16.3404 255.66 18.383C257.021 20.2553 258.043 22.4681 258.723 24.8511C259.404 27.234 259.574 29.7872 259.404 32.5106H234.723C234.723 35.0638 235.745 37.617 237.106 38.9787ZM248 21.1064C246.808 19.9149 244.936 19.234 242.723 19.234C241.191 19.234 240 19.5745 238.979 20.0851C237.957 20.5957 237.106 21.2766 236.596 21.9574C236.085 22.6383 235.574 23.4894 235.404 24.3404C235.234 25.1915 235.064 25.8723 235.064 26.5532H250.383C249.872 24 249.021 22.2979 248 21.1064Z" fill="black"/>
</g>
<defs>
<clipPath id="clip0_152_483">
<rect width="259.574" height="48" fill="white"/>
</clipPath>
</defs>
</svg>
