<svg width="202" height="80" viewBox="0 0 202 80" fill="none" xmlns="http://www.w3.org/2000/svg">
<g clip-path="url(#clip0_151_459)">
<path fill-rule="evenodd" clip-rule="evenodd" d="M198.277 42.3433C198.703 41.845 199.456 41.8677 199.843 42.3993H199.84L201.312 44.4235C201.591 44.8124 201.589 45.3491 201.297 45.7278C198.742 49.0615 194.264 52.2704 188.862 52.5808C184.597 52.8248 181.08 51.2 179.166 48.1281C178.787 47.5205 177.951 47.485 177.526 48.0596C175.254 51.1261 172.506 53.5242 169.643 53.6893C164.542 53.9818 163.102 50.5415 164.363 42.9562C164.489 42.201 163.831 41.5628 163.122 41.7509C162.064 42.0331 160.942 42.1576 159.803 42.0586C159.329 42.0178 158.884 42.3078 158.741 42.7806C156.854 49.0157 152.362 54.8158 146.547 55.1516C142.836 55.3651 137.291 53.2265 137.846 44.2911C137.892 43.5639 137.243 42.9918 136.575 43.1951C135.411 43.5511 134.158 43.719 132.882 43.6096C132.409 43.5689 131.966 43.8588 131.823 44.3319C129.936 50.5668 125.444 56.3671 119.629 56.7026C115.918 56.9162 110.373 54.7778 110.928 45.8423C110.974 45.1148 110.325 44.5427 109.657 44.7464C108.493 45.1024 107.24 45.2727 105.963 45.1607C105.49 45.1202 105.048 45.4101 104.905 45.8829C103.017 52.118 98.5255 57.9182 92.7114 58.2538C90.0706 58.4064 86.4994 57.3662 84.8595 53.5367C84.5435 52.797 83.5962 52.6849 83.1273 53.3283C80.8316 56.4789 78.0352 58.9659 75.115 59.1337C72.1218 59.3065 70.4845 58.0987 69.7727 55.9448C69.52 55.1846 68.5749 55.0039 68.0648 55.6066C66.0216 58.0224 63.6943 59.7922 61.3401 59.927C57.7105 60.138 55.6211 57.4323 55.4487 54.1546C55.2495 50.3303 56.8943 45.8524 58.7308 40.9651C58.9859 40.2862 58.5243 39.5512 57.8271 39.5207C56.7679 39.4751 55.5581 39.3631 54.421 39.1494C53.9083 39.0504 53.4105 39.3708 53.2646 39.8946C51.0927 47.6933 47.7668 55.3372 44.9607 59.8557C44.6473 60.3617 43.9988 60.4966 43.5274 60.1481L41.3847 58.5616C40.945 58.2334 40.8259 57.6029 41.1199 57.1274C45.1747 50.5948 48.7751 40.3675 50.0165 32.8027C50.0943 32.3195 50.4853 31.961 50.9542 31.933L53.8039 31.7677C54.4574 31.7296 54.9726 32.3424 54.8535 33.0162L54.8413 33.0874C54.7344 33.6875 55.1329 34.252 55.7087 34.3309C58.2643 34.6845 62.0835 34.7275 64.6756 34.6259C65.4044 34.5979 65.9195 35.3557 65.6547 36.0651C63.5751 41.6288 60.7886 49.3387 60.9488 52.39C61.0218 53.7681 61.6268 54.5209 62.6907 54.4598C64.7267 54.343 67.8583 50.226 70.2319 45.6415C70.2755 45.5599 70.307 45.4712 70.3265 45.3796C71.1262 41.7897 72.3132 37.787 73.5123 33.7428L73.5868 33.4917C73.7107 33.0697 74.0727 32.7747 74.4954 32.7493L77.9088 32.5535C78.6134 32.5127 79.1405 33.2248 78.9268 33.9291C78.7511 34.51 78.5761 35.0869 78.4027 35.6586C75.3991 45.5593 72.8768 53.874 76.2738 53.6793C78.4943 53.552 81.6405 49.7632 84.3468 44.3699C84.3905 44.2808 84.4222 44.1867 84.4416 44.0877C84.5777 43.3832 84.7428 42.646 84.9446 41.8755C86.5226 35.5369 88.312 29.2579 90.1035 22.9713C90.6564 21.0311 91.2095 19.0901 91.7566 17.1465C91.8782 16.7168 92.2424 16.4142 92.6699 16.3887L96.1735 16.1879C96.8855 16.1472 97.4124 16.8668 97.1888 17.5762C95.7895 21.9906 94.3269 26.6922 92.9374 31.2185C92.6458 32.1721 93.6612 32.9654 94.4631 32.4161C95.8454 31.4651 97.444 30.8345 98.9919 30.7455C102.935 30.5192 105.619 33.7816 105.876 38.6969C105.891 38.9563 105.906 39.236 105.913 39.5207C105.927 40.0651 106.333 40.5049 106.851 40.5506C108.707 40.7159 110.604 40.1616 112.07 38.8469C112.22 38.7121 112.322 38.529 112.373 38.3306C113.826 32.6574 115.429 27.0264 117.034 21.3883C117.583 19.458 118.133 17.5268 118.677 15.5928C118.798 15.1631 119.163 14.8605 119.591 14.8351L123.094 14.6342C123.806 14.5935 124.333 15.3131 124.11 16.0226C122.71 20.4369 121.247 25.1386 119.858 29.6648C119.566 30.6184 120.582 31.4117 121.384 30.8625C122.766 29.9115 124.365 29.2809 125.912 29.1918C129.855 28.9656 132.539 32.2279 132.797 37.1434C132.812 37.4025 132.826 37.6825 132.834 37.9672C132.845 38.5113 133.254 38.9513 133.771 38.9971C135.627 39.1622 137.524 38.6078 138.99 37.2932C139.14 37.1586 139.242 36.9755 139.294 36.7771C140.747 31.1038 142.349 25.4729 143.955 19.8349C144.504 17.9045 145.053 15.9732 145.597 14.0392C145.719 13.6094 146.084 13.3068 146.511 13.2814L150.015 13.0805C150.727 13.0398 151.253 13.7595 151.03 14.4689C149.631 18.8832 148.168 23.5849 146.779 28.1111C146.487 29.0647 147.502 29.8581 148.305 29.3089C149.686 28.3578 151.285 27.7272 152.833 27.6382C156.776 27.4119 159.46 30.6743 159.718 35.5896C159.733 35.8515 159.747 36.1287 159.754 36.4134C159.769 36.955 160.172 37.3975 160.689 37.4433C162.485 37.6034 164.321 37.0898 165.765 35.8668C165.925 35.732 166.036 35.5413 166.09 35.3327C167.744 28.9197 170.174 20.5183 172.517 12.4779C172.64 12.0532 173.004 11.7583 173.427 11.7328L176.899 11.5319C177.603 11.4913 178.13 12.1982 177.919 12.9025C174.695 23.6688 172.067 33.0874 170.617 38.6436C168.69 46.1804 168.615 48.3545 170.806 48.2274C172.645 48.1206 175.123 45.4964 177.46 41.5295C177.553 41.3744 177.601 41.1965 177.608 41.016C177.914 33.0747 182.756 25.8506 189.952 25.4361C194.772 25.1589 197.413 28.8206 197.602 32.4238C197.962 39.3021 191.201 43.6987 184.649 43.2917C183.886 43.2434 183.331 44.0674 183.667 44.7844C184.583 46.7525 186.51 47.8512 189.799 47.6603C192.929 47.4825 196.21 44.7666 198.277 42.3433ZM89.9684 44.2733C88.4136 50.5415 90.3013 52.9951 92.7429 52.8553C96.7512 52.6238 100.629 45.2369 100.331 39.5359C100.199 37.0466 98.751 35.7497 97.0602 35.8465C94.2443 36.0091 91.2125 39.2715 89.9684 44.2733ZM116.889 42.7223C115.334 48.9902 117.222 51.4441 119.664 51.3042H119.661C123.669 51.0729 127.549 43.6859 127.251 37.9849C127.122 35.4955 125.671 34.1986 123.98 34.2952C121.165 34.458 118.133 37.7205 116.889 42.7223ZM143.81 41.171C142.255 47.4391 144.143 49.893 146.584 49.7532H146.582C150.587 49.5218 154.47 42.1349 154.172 36.4339C154.042 33.9443 152.592 32.6476 150.901 32.7442C148.086 32.9069 145.053 36.1694 143.81 41.171ZM192.483 32.9781C192.459 31.3354 191.456 30.1454 189.828 30.2395H189.826C186.629 30.4251 184.126 33.9062 183.329 38.1298C183.203 38.8012 183.691 39.4267 184.345 39.4113C188.475 39.3073 192.615 36.566 192.483 32.9781ZM42.5613 36.0276C42.1435 23.3006 33.915 14.9017 21.7556 15.339C16.5348 15.5781 10.5607 17.5691 6.06634 21.129C5.64362 21.4647 5.53428 22.08 5.82095 22.5479L7.72807 25.6705C8.0536 26.2045 8.74599 26.3138 9.21974 25.9172C12.6404 23.059 17.3098 21.185 21.8018 20.9867C30.1348 20.6383 36.2569 26.0037 36.6142 36.3682C37.0612 48.4365 28.9954 62.2414 16.0343 62.989C15.5824 63.0145 15.1111 63.0247 14.6398 63.0247C13.979 63.0247 13.4907 62.3763 13.6559 61.7048C16.1558 51.5564 19.0736 40.6732 22.0496 30.5451C22.2561 29.8407 21.7313 29.1389 21.0293 29.1796L17.2393 29.3983C16.8142 29.4237 16.4497 29.7212 16.3258 30.1484C13.4664 40.101 10.6045 50.8954 8.02931 61.0234C7.88111 61.6082 7.29077 61.944 6.74171 61.7556C5.39824 61.2956 4.17138 60.7717 3.12671 60.1588C2.62624 59.8639 1.99217 60.0725 1.73465 60.6114L0.10692 64.0342C-0.133594 64.5403 0.0437553 65.1606 0.517496 65.4326C4.2078 67.5382 9.81014 68.7408 15.4415 68.418C33.9734 67.3498 43.0521 50.1349 42.5613 36.0326V36.0276ZM78.9805 20.3905C76.726 20.5202 74.7264 23.0681 74.8675 25.7533C74.9596 27.5231 76.0894 28.7055 77.8434 28.6064C80.0979 28.4767 82.1531 25.794 82.0196 23.2384C81.9274 21.4687 80.6081 20.2964 78.9805 20.3905Z" fill="black"/>
</g>
<defs>
<clipPath id="clip0_151_459">
<rect width="201.519" height="80" fill="white"/>
</clipPath>
</defs>
</svg>
