<svg width="204" height="80" viewBox="0 0 204 80" fill="none" xmlns="http://www.w3.org/2000/svg">
<g clip-path="url(#clip0_151_477)">
<path fill-rule="evenodd" clip-rule="evenodd" d="M200.102 42.3433C200.531 41.845 201.291 41.8677 201.682 42.3993H201.679L203.164 44.4235C203.446 44.8124 203.444 45.3491 203.15 45.7278C200.571 49.0615 196.052 52.2704 190.6 52.5808C186.296 52.8248 182.747 51.2 180.815 48.1281C180.432 47.5205 179.588 47.485 179.159 48.0596C176.867 51.1261 174.094 53.5242 171.204 53.6893C166.056 53.9818 164.603 50.5415 165.875 42.9562C166.003 42.201 165.339 41.5628 164.623 41.7509C163.556 42.0331 162.423 42.1576 161.273 42.0586C160.795 42.0178 160.346 42.3078 160.202 42.7806C158.297 49.0157 153.764 54.8158 147.896 55.1516C144.15 55.3651 138.554 53.2265 139.114 44.2911C139.161 43.5639 138.506 42.9918 137.832 43.1951C136.657 43.5511 135.393 43.719 134.104 43.6096C133.627 43.5689 133.181 43.8588 133.036 44.3319C131.131 50.5668 126.598 56.3671 120.73 56.7026C116.984 56.9162 111.389 54.7778 111.948 45.8423C111.995 45.1148 111.34 44.5427 110.666 44.7464C109.491 45.1024 108.227 45.2727 106.939 45.1607C106.461 45.1202 106.015 45.4101 105.87 45.8829C103.965 52.118 99.4322 57.9182 93.5646 58.2538C90.8995 58.4064 87.2955 57.3662 85.6404 53.5367C85.3216 52.797 84.3655 52.6849 83.8922 53.3283C81.5754 56.4789 78.7533 58.9659 75.8062 59.1337C72.7855 59.3065 71.1332 58.0987 70.4148 55.9448C70.1598 55.1846 69.206 55.0039 68.6911 55.6066C66.6292 58.0224 64.2804 59.7922 61.9046 59.927C58.2416 60.138 56.1329 57.4323 55.959 54.1546C55.7579 50.3303 57.4179 45.8524 59.2713 40.9651C59.5288 40.2862 59.0629 39.5512 58.3593 39.5207C57.2903 39.4751 56.0694 39.3631 54.9218 39.1494C54.4044 39.0504 53.902 39.3708 53.7548 39.8946C51.5629 47.6933 48.2064 55.3372 45.3745 59.8557C45.0582 60.3617 44.4037 60.4966 43.928 60.1481L41.7656 58.5616C41.3218 58.2334 41.2016 57.6029 41.4983 57.1274C45.5904 50.5948 49.2239 40.3675 50.4768 32.8027C50.5553 32.3195 50.9499 31.961 51.4231 31.933L54.2991 31.7677C54.9586 31.7296 55.4784 32.3424 55.3583 33.0162L55.346 33.0874C55.2381 33.6875 55.6403 34.252 56.2213 34.3309C58.8005 34.6845 62.6548 34.7275 65.2708 34.6259C66.0063 34.5979 66.5262 35.3557 66.2589 36.0651C64.1602 41.6288 61.348 49.3387 61.5097 52.39C61.5833 53.7681 62.1939 54.5209 63.2676 54.4598C65.3224 54.343 68.4827 50.226 70.8782 45.6415C70.9222 45.5599 70.954 45.4712 70.9737 45.3796C71.7808 41.7897 72.9786 37.787 74.1888 33.7428L74.264 33.4917C74.389 33.0697 74.7544 32.7747 75.181 32.7493L78.6257 32.5535C79.3369 32.5127 79.8688 33.2248 79.6532 33.9291C79.4758 34.51 79.2992 35.0869 79.1242 35.6586C76.093 45.5593 73.5474 53.874 76.9757 53.6793C79.2167 53.552 82.3918 49.7632 85.123 44.3699C85.1671 44.2808 85.1991 44.1867 85.2187 44.0877C85.356 43.3832 85.5226 42.646 85.7263 41.8755C87.3188 35.5369 89.1246 29.2579 90.9326 22.9713C91.4907 21.0311 92.0489 19.0901 92.601 17.1465C92.7237 16.7168 93.0913 16.4142 93.5227 16.3887L97.0585 16.1879C97.7771 16.1472 98.3088 16.8668 98.0832 17.5762C96.671 21.9906 95.195 26.6922 93.7927 31.2185C93.4983 32.1721 94.5231 32.9654 95.3324 32.4161C96.7274 31.4651 98.3408 30.8345 99.9029 30.7455C103.882 30.5192 106.591 33.7816 106.85 38.6969C106.865 38.9563 106.881 39.236 106.887 39.5207C106.902 40.0651 107.311 40.5049 107.834 40.5506C109.707 40.7159 111.622 40.1616 113.101 38.8469C113.253 38.7121 113.356 38.529 113.407 38.3306C114.873 32.6574 116.491 27.0264 118.111 21.3883C118.666 19.458 119.22 17.5268 119.77 15.5928C119.892 15.1631 120.26 14.8605 120.692 14.8351L124.226 14.6342C124.945 14.5935 125.478 15.3131 125.252 16.0226C123.839 20.4369 122.363 25.1386 120.961 29.6648C120.666 30.6184 121.692 31.4117 122.501 30.8625C123.896 29.9115 125.51 29.2809 127.071 29.1918C131.05 28.9656 133.759 32.2279 134.019 37.1434C134.034 37.4025 134.048 37.6825 134.056 37.9672C134.068 38.5113 134.48 38.9513 135.002 38.9971C136.875 39.1622 138.79 38.6078 140.269 37.2932C140.421 37.1586 140.523 36.9755 140.576 36.7771C142.042 31.1038 143.659 25.4729 145.279 19.8349C145.834 17.9045 146.388 15.9732 146.937 14.0392C147.06 13.6094 147.428 13.3068 147.859 13.2814L151.395 13.0805C152.114 13.0398 152.645 13.7595 152.42 14.4689C151.008 18.8832 149.532 23.5849 148.129 28.1111C147.835 29.0647 148.86 29.8581 149.669 29.3089C151.064 28.3578 152.677 27.7272 154.239 27.6382C158.219 27.4119 160.927 30.6743 161.188 35.5896C161.203 35.8515 161.217 36.1287 161.224 36.4134C161.239 36.955 161.646 37.3975 162.168 37.4433C163.98 37.6034 165.834 37.0898 167.29 35.8668C167.452 35.732 167.564 35.5413 167.618 35.3327C169.288 28.9197 171.74 20.5183 174.104 12.4779C174.229 12.0532 174.596 11.7583 175.023 11.7328L178.527 11.5319C179.238 11.4913 179.77 12.1982 179.557 12.9025C176.303 23.6688 173.65 33.0874 172.187 38.6436C170.242 46.1804 170.166 48.3545 172.377 48.2274C174.234 48.1206 176.734 45.4964 179.093 41.5295C179.187 41.3744 179.235 41.1965 179.243 41.016C179.552 33.0747 184.437 25.8506 191.7 25.4361C196.564 25.1589 199.229 28.8206 199.42 32.4238C199.783 39.3021 192.961 43.6987 186.348 43.2917C185.578 43.2434 185.019 44.0674 185.357 44.7844C186.281 46.7525 188.226 47.8512 191.546 47.6603C194.704 47.4825 198.016 44.7666 200.102 42.3433ZM90.7964 44.2733C89.2272 50.5415 91.1323 52.9951 93.5964 52.8553C97.6415 52.6238 101.555 45.2369 101.254 39.5359C101.121 37.0466 99.6598 35.7497 97.9534 35.8465C95.1116 36.0091 92.0519 39.2715 90.7964 44.2733ZM117.964 42.7223C116.395 48.9902 118.3 51.4441 120.765 51.3042H120.762C124.807 51.0729 128.723 43.6859 128.422 37.9849C128.292 35.4955 126.828 34.1986 125.121 34.2952C122.28 34.458 119.22 37.7205 117.964 42.7223ZM145.133 41.171C143.564 47.4391 145.469 49.893 147.933 49.7532H147.931C151.973 49.5218 155.892 42.1349 155.59 36.4339C155.46 33.9443 153.996 32.6476 152.29 32.7442C149.449 32.9069 146.388 36.1694 145.133 41.171ZM194.255 32.9781C194.23 31.3354 193.217 30.1454 191.575 30.2395H191.573C188.346 30.4251 185.82 33.9062 185.017 38.1298C184.889 38.8012 185.382 39.4267 186.041 39.4113C190.209 39.3073 194.387 36.566 194.255 32.9781ZM42.953 36.0276C42.5313 23.3006 34.2271 14.9017 21.9558 15.339C16.687 15.5781 10.6579 17.5691 6.12216 21.129C5.69555 21.4647 5.58521 22.08 5.87452 22.5479L7.79919 25.6705C8.12771 26.2045 8.82648 26.3138 9.30459 25.9172C12.7567 23.059 17.4691 21.185 22.0024 20.9867C30.4121 20.6383 36.5906 26.0037 36.9511 36.3682C37.4022 48.4365 29.2622 62.2414 16.1818 62.989C15.7258 63.0145 15.2502 63.0247 14.7745 63.0247C14.1076 63.0247 13.6149 62.3763 13.7816 61.7048C16.3045 51.5564 19.2491 40.6732 22.2525 30.5451C22.461 29.8407 21.9313 29.1389 21.2228 29.1796L17.3979 29.3983C16.9689 29.4237 16.6011 29.7212 16.4761 30.1484C13.5903 40.101 10.7021 50.8954 8.1032 61.0234C7.95364 61.6082 7.35787 61.944 6.80375 61.7556C5.44792 61.2956 4.20976 60.7717 3.15548 60.1588C2.65041 59.8639 2.0105 60.0725 1.75061 60.6114L0.107904 64.0342C-0.134823 64.5403 0.044158 65.1606 0.522258 65.4326C4.24653 67.5382 9.90041 68.7408 15.5836 68.418C34.2861 67.3498 43.4483 50.1349 42.953 36.0326V36.0276ZM79.7073 20.3905C77.432 20.5202 75.4141 23.0681 75.5564 25.7533C75.6494 27.5231 76.7897 28.7055 78.5598 28.6064C80.835 28.4767 82.9092 25.794 82.7744 23.2384C82.6814 21.4687 81.3499 20.2964 79.7073 20.3905Z" fill="white"/>
</g>
<defs>
<clipPath id="clip0_151_477">
<rect width="203.373" height="80" fill="white"/>
</clipPath>
</defs>
</svg>
