<svg width="189" height="48" viewBox="0 0 189 48" fill="none" xmlns="http://www.w3.org/2000/svg">
<g clip-path="url(#clip0_152_481)">
<path d="M24 18.4615H31.3846V40.6154H24V18.4615ZM27.6923 7.01538C26.8931 7.03355 26.1172 7.2871 25.4616 7.7443C24.8058 8.20148 24.2996 8.84197 24.0065 9.58554C23.7131 10.3291 23.6457 11.1427 23.8126 11.9244C23.9797 12.706 24.3737 13.4211 24.945 13.9799C25.5166 14.5387 26.2403 14.9165 27.0257 15.0659C27.8108 15.2152 28.6228 15.1296 29.3594 14.8197C30.0962 14.5097 30.7252 13.9893 31.1675 13.3235C31.6098 12.6577 31.846 11.8763 31.8462 11.0769C31.8489 10.535 31.7426 9.99803 31.5336 9.49798C31.3246 8.99793 31.0172 8.545 30.6297 8.16611C30.2422 7.78722 29.7825 7.4901 29.278 7.29242C28.7732 7.09475 28.234 7.00052 27.6923 7.01538ZM7.38462 7.38462H0V40.6154H20.3077V33.2308H7.38462V7.38462ZM106.892 29.9077C106.892 30.6646 106.892 31.1262 106.892 31.3846H90.2769C90.2808 31.6966 90.3242 32.0068 90.4062 32.3077C90.7874 33.403 91.5222 34.3405 92.4949 34.9722C93.4674 35.604 94.6228 35.8942 95.7785 35.7969C96.7647 35.8392 97.7479 35.6623 98.6577 35.2793C99.5675 34.8962 100.381 34.3165 101.04 33.5815L106.062 36.6831C104.775 38.1807 103.163 39.3637 101.348 40.1415C99.5339 40.9191 97.5654 41.2706 95.5938 41.1692C88.9662 41.1692 83.2985 37.3846 83.2985 29.7415C83.2449 28.155 83.522 26.5746 84.1122 25.1009C84.7023 23.6271 85.5925 22.2923 86.7262 21.1811C87.8599 20.0699 89.2124 19.2068 90.6978 18.6463C92.1831 18.086 93.7687 17.8408 95.3538 17.9262C101.686 17.9262 106.892 22.1538 106.892 29.9077ZM99.9692 27.12C99.9877 26.5235 99.8764 25.9302 99.6426 25.3809C99.4091 24.8319 99.0589 24.3401 98.6164 23.9396C98.1738 23.5392 97.6495 23.2399 97.0798 23.0622C96.5101 22.8846 95.9086 22.8329 95.3169 22.9108C94.087 22.8028 92.8639 23.184 91.9135 23.9721C90.963 24.7602 90.3617 25.8914 90.24 27.12H99.9692ZM125.538 7.38462H132.923V40.6154H126.665V37.9754C125.813 39.0358 124.715 39.8727 123.467 40.413C122.219 40.9536 120.858 41.1814 119.502 41.0769C114.868 41.0769 109.255 37.6431 109.255 29.5385C109.255 22.3015 114.222 18 119.409 18C120.552 17.9476 121.692 18.145 122.751 18.5786C123.81 19.0122 124.761 19.6717 125.538 20.5108V7.38462ZM126.092 29.5385C126.092 26.0677 123.932 23.76 121.182 23.76C120.437 23.7594 119.7 23.9092 119.014 24.2001C118.328 24.4911 117.709 24.9174 117.192 25.4533C116.675 25.9892 116.271 26.6241 116.005 27.3196C115.739 28.0152 115.616 28.7574 115.643 29.5015C115.621 30.2428 115.748 30.9809 116.016 31.6721C116.284 32.3633 116.689 32.9937 117.205 33.5256C117.722 34.0577 118.34 34.4806 119.023 34.7692C119.706 35.0579 120.44 35.2065 121.182 35.2062C121.883 35.177 122.572 35.0047 123.204 34.6998C123.837 34.3948 124.401 33.9635 124.861 33.4327C125.321 32.902 125.667 32.2826 125.879 31.6128C126.091 30.9432 126.163 30.2372 126.092 29.5385ZM84.48 18.4615H75.6923L68.4369 27.5077H68.3077V7.38462H60.9231V40.6154H68.3077V30.0369H68.4369L75.8215 40.6154H84.9231L75.6923 28.5785L84.48 18.4615ZM48.9785 17.9077C47.5985 17.8859 46.2353 18.2129 45.0153 18.8583C43.7956 19.5037 42.7582 20.4469 42 21.6H41.9077V18.4615H35.0769V40.6154H42.4615V28.56C42.3803 27.9738 42.4248 27.377 42.5919 26.8091C42.759 26.2414 43.0449 25.7158 43.4308 25.267C43.8168 24.8182 44.2937 24.4567 44.83 24.2064C45.3663 23.9562 45.9497 23.823 46.5415 23.8154C48.5723 23.8154 49.8462 24.9046 49.8462 28.4677V40.6154H57.2308V26.88C57.2308 20.1415 53.0031 17.9077 48.9785 17.9077ZM188.308 3.69231V44.3077C188.308 45.2869 187.918 46.226 187.226 46.9185C186.534 47.611 185.594 48 184.615 48H144C143.021 48 142.082 47.611 141.389 46.9185C140.697 46.226 140.308 45.2869 140.308 44.3077V3.69231C140.308 2.71305 140.697 1.77389 141.389 1.08145C142.082 0.38901 143.021 0 144 0H184.615C185.594 0 186.534 0.38901 187.226 1.08145C187.918 1.77389 188.308 2.71305 188.308 3.69231ZM155.077 18.4615H147.692V40.6154H155.077V18.4615ZM155.538 11.0769C155.557 10.2517 155.329 9.4397 154.884 8.74457C154.439 8.04943 153.796 7.5027 153.039 7.1741C152.282 6.8455 151.444 6.74994 150.632 6.89965C149.821 7.04935 149.072 7.43751 148.482 8.0146C147.892 8.59167 147.486 9.3315 147.319 10.1397C147.151 10.9479 147.227 11.7877 147.539 12.5522C147.85 13.3166 148.383 13.9708 149.068 14.4315C149.752 14.8921 150.559 15.1383 151.385 15.1385C151.926 15.1533 152.466 15.0591 152.97 14.8614C153.475 14.6637 153.935 14.3666 154.322 13.9877C154.71 13.6088 155.017 13.1559 155.226 12.6559C155.435 12.1558 155.541 11.6189 155.538 11.0769ZM180.923 26.88C180.923 20.1415 176.695 17.8338 172.671 17.8338C171.283 17.8254 169.915 18.1679 168.695 18.8297C167.475 19.4913 166.442 20.4506 165.692 21.6185V18.4615H158.769V40.6154H166.154V28.56C166.073 27.9738 166.117 27.377 166.284 26.8091C166.451 26.2414 166.737 25.7158 167.123 25.267C167.509 24.8182 167.986 24.4567 168.522 24.2064C169.059 23.9562 169.642 23.823 170.234 23.8154C172.265 23.8154 173.538 24.9046 173.538 28.4677V40.6154H180.923V26.88Z" fill="black"/>
</g>
<defs>
<clipPath id="clip0_152_481">
<rect width="188.308" height="48" fill="white"/>
</clipPath>
</defs>
</svg>
