<svg xmlns="http://www.w3.org/2000/svg" viewBox="0 0 536.42 360.91"><defs><style>.cls-1{fill:#d41929;fill-rule:evenodd;}</style></defs><g id="Layer_2" data-name="Layer 2"><g id="Layer_1-2" data-name="Layer 1"><path class="cls-1" d="M535.65,177.72,455.1,3.63A6.26,6.26,0,0,0,451.57.38a6.34,6.34,0,0,0-4.8.19l-.36.18L305.85,77.19l-.38.21L268.21,97.66,231,77.4l-.38-.21L90,.75,89.65.57a6.34,6.34,0,0,0-4.8-.19,6.26,6.26,0,0,0-3.53,3.25L.77,177.72a6.22,6.22,0,0,0-.77,3,6.39,6.39,0,0,0,.77,3L81,357.26a6.27,6.27,0,0,0,8.32,3.07l.34-.17,178.54-96.32,178.54,96.32.34.17a6.27,6.27,0,0,0,8.32-3.07l80.24-173.5a6.39,6.39,0,0,0,.77-3A6.22,6.22,0,0,0,535.65,177.72ZM290.39,124,268.21,172.3,246,124,268.21,112ZM160.11,53.18l70.55,38.36,24.4,13.27L126.83,174.55l-22.49,0Zm70.5,216.7L160,308l-55.6-120.88,21.64,0,129,69.59ZM246,237.6l22.23-48,22.23,48-22.23,12ZM376.46,308l-70.65-38.11-24.39-13.16,129-69.59,21.64,0Zm33.13-133.44L281.36,104.81l24.4-13.27,70.55-38.36,55.77,121.35Z"/></g></g></svg>