<svg width="311" height="48" viewBox="0 0 311 48" fill="none" xmlns="http://www.w3.org/2000/svg">
<path d="M46.8038 24.2514C46.8038 37.1374 36.4287 47.5841 23.63 47.5841C10.8313 47.5841 0.457031 37.1405 0.457031 24.2514C0.457031 11.3622 10.8321 0.919432 23.63 0.919432C36.4279 0.919432 46.8038 11.3653 46.8038 24.2514ZM72.2257 24.2514C72.2257 36.382 67.0378 46.2149 60.6388 46.2149C54.2399 46.2149 49.0519 36.3788 49.0519 24.2514C49.0519 12.1239 54.2399 2.28783 60.6388 2.28783C67.0378 2.28783 72.2257 12.1239 72.2257 24.2514ZM82.6236 24.2514C82.6236 35.1198 80.7988 43.9298 78.5483 43.9298C76.2978 43.9298 74.473 35.1167 74.473 24.2514C74.473 13.3861 76.2978 4.57294 78.5491 4.57294C80.8004 4.57294 82.6236 13.3837 82.6236 24.2514ZM146.579 2.94251L146.644 2.92835V2.42868H133.465L121.228 31.1893L108.991 2.42868H94.7896V2.92835L94.8534 2.94251C97.2589 3.48547 98.4801 4.29517 98.4801 7.2153V41.4015C98.4801 44.3217 97.2541 45.1314 94.8486 45.6743L94.7849 45.6885V46.1897H104.42V45.6901L104.357 45.6759C101.951 45.1329 100.73 44.3232 100.73 41.4031V9.19825L116.449 46.1897H117.341L133.519 8.16665V42.2474C133.312 44.5538 132.102 45.2659 129.924 45.7577L129.86 45.7727V46.2684H146.644V45.7727L146.579 45.7577C144.399 45.2659 143.159 44.5538 142.953 42.2474L142.942 7.2153H142.953C142.953 4.29517 144.175 3.48547 146.579 2.94251ZM154.246 25.5891C154.52 19.4466 156.726 15.0133 160.428 14.937C161.569 14.9559 162.527 15.3304 163.271 16.0512C164.853 17.5864 165.597 20.7946 165.482 25.5891H154.246ZM154.08 27.3202H173.752V27.2376C173.696 22.5407 172.336 18.8872 169.712 16.3786C167.444 14.2107 164.087 13.0178 160.56 13.0178H160.481C158.651 13.0178 156.406 13.4616 154.809 14.2658C152.99 15.1078 151.386 16.3668 150.052 18.0192C147.904 20.6813 146.602 24.2789 146.286 28.3219C146.276 28.4431 146.267 28.5643 146.258 28.6855C146.25 28.8066 146.244 28.9152 146.239 29.0309C146.211 29.5994 146.201 30.1686 146.21 30.7377C146.423 39.8946 151.37 47.2127 160.155 47.2127C167.867 47.2127 172.358 41.5754 173.477 34.0087L172.912 33.8097C170.944 37.8763 167.411 40.3408 163.39 40.0402C157.901 39.6295 153.696 34.0638 154.077 27.3218M195.994 39.7294C195.349 41.2599 194.002 42.1019 192.198 42.1019C190.394 42.1019 188.745 40.8633 187.573 38.6128C186.314 36.1971 185.651 32.782 185.651 28.7366C185.651 20.3169 188.27 14.8709 192.323 14.8709C194.021 14.8709 195.357 15.7129 195.994 17.182V39.7294ZM209.044 45.7318C206.638 45.1628 205.417 44.3154 205.417 41.2465V0.415039L190.802 4.72088V5.24809L190.892 5.24101C192.908 5.07812 194.276 5.35668 195.069 6.09006C195.691 6.66448 195.994 7.54579 195.994 8.78592V14.3838C194.553 13.464 192.839 13.0162 190.76 13.0162C186.542 13.0162 182.687 14.7922 179.907 18.0177C177.009 21.3792 175.477 25.9731 175.477 31.3011C175.476 40.8169 180.16 47.2127 187.132 47.2127C191.211 47.2127 194.492 44.9779 195.994 41.2087V46.2684H209.108V45.7444L209.044 45.7318ZM221.578 5.96809C221.578 2.99681 219.338 0.75576 216.366 0.75576C213.408 0.75576 211.094 3.0456 211.094 5.96809C211.094 8.89058 213.41 11.1804 216.366 11.1804C219.338 11.1804 221.578 8.93937 221.578 5.96809ZM225.028 45.7318C222.622 45.1628 221.401 44.3154 221.401 41.2465H221.391V13.113L208.277 16.8783V17.3897L208.355 17.3968C211.193 17.6494 211.969 18.6267 211.969 21.9426V46.2684H225.095V45.7444L225.028 45.7318ZM258.632 45.7318C256.226 45.1628 255.005 44.3154 255.005 41.2465V13.113L242.519 16.7539V17.267L242.593 17.2748C244.912 17.5188 245.583 18.552 245.583 21.8828V39.6664C244.809 41.1969 243.358 42.1058 241.6 42.1672C238.749 42.1672 237.18 40.2417 237.18 36.7455V13.1138L224.065 16.879V17.3897L224.144 17.3968C226.982 17.6486 227.759 18.6259 227.759 21.9426V36.9934C227.752 38.0441 227.844 39.0931 228.032 40.1268L228.268 41.1537C229.378 45.1322 232.288 47.2127 236.845 47.2127C240.706 47.2127 244.089 44.8229 245.58 41.0836V46.2771H258.694V45.753L258.632 45.7318ZM309.577 46.2684V45.7436L309.513 45.7286C306.903 45.1266 305.887 43.992 305.887 41.6817V22.5446C305.887 16.5777 302.535 13.0162 296.922 13.0162C292.83 13.0162 289.379 15.3808 288.051 19.0642C286.996 15.1613 283.959 13.0162 279.469 13.0162C275.525 13.0162 272.434 15.0975 271.109 18.6133V13.1154L257.994 16.7264V17.241L258.073 17.2481C260.877 17.4967 261.687 18.5024 261.687 21.7333V46.2684H273.923V45.7444L273.859 45.7286C271.777 45.2392 271.105 44.3468 271.105 42.057V20.1218C271.655 18.8352 272.766 17.311 274.96 17.311C277.686 17.311 279.068 19.1996 279.068 22.92V46.2684H291.307V45.7444L291.243 45.7286C289.16 45.2392 288.488 44.3468 288.488 42.057V22.5423C288.494 21.8126 288.436 21.0838 288.315 20.3642C288.899 18.9659 290.073 17.311 292.358 17.311C295.122 17.311 296.465 19.1453 296.465 22.92V46.2684H309.577Z" fill="white"/>
</svg>
