<svg width="37" height="48" viewBox="0 0 37 48" fill="none" xmlns="http://www.w3.org/2000/svg">
<g clip-path="url(#clip0_151_463)">
<path d="M11.3785 34.2536C8.4478 35.2188 5.86394 36.2644 4.24777 34.6055C2.88546 33.2507 3.01868 30.0083 6.4345 29.3523C7.29078 29.6719 8.18447 29.8805 9.09377 29.9731C9.79345 30.0578 10.4978 30.0981 11.2026 30.0938H11.288C17.2827 30.0636 21.4048 27.0776 21.4048 22.214C21.4202 20.9994 21.127 19.8007 20.5527 18.7303C19.8905 17.5293 18.907 16.5363 17.7125 15.8624C17.1722 15.5995 16.6136 15.3761 16.041 15.1938L16.0712 15.1134C15.7908 15.0033 15.5047 14.9085 15.2141 14.8294C13.9057 14.4608 12.5518 14.2788 11.1925 14.289C5.9494 14.294 2.11885 16.5888 1.21399 20.4043C1.07393 20.9973 1.00392 21.6047 1.00537 22.214C1.00423 22.4785 1.01849 22.7429 1.0481 23.0057C1.29945 25.851 3.05889 27.9674 5.77848 29.1336C3.93426 29.5281 2.29918 30.5863 1.18383 32.1071C0.970987 32.3989 0.783469 32.7083 0.623325 33.032C-0.100558 34.4547 -0.251367 36.0759 0.477543 37.5789C2.48833 41.6935 7.39716 40.952 11.5545 39.8159C14.1811 39.1096 16.6317 40.0673 16.6317 42.6134C16.6317 44.8504 14.6209 47.4343 11.6877 47.9998C15.6288 47.9144 20.9675 45.7678 20.9675 40.5147C20.9675 35.0855 16.0662 32.6751 11.3785 34.2536ZM8.47796 15.885C8.82378 15.5069 9.24475 15.2052 9.71394 14.9991C10.1831 14.7931 10.6902 14.6873 11.2026 14.6886C12.0807 14.6791 12.9306 14.9983 13.5854 15.5834C13.9579 15.9045 14.2799 16.2798 14.5405 16.6969C14.7594 17.0378 14.9486 17.3968 15.106 17.7702C15.6845 19.1801 15.98 20.69 15.9757 22.214C15.9757 25.4564 14.5757 29.6991 11.2001 29.6991H11.185C10.6374 29.7019 10.0965 29.579 9.604 29.3397C7.35946 28.2514 6.4345 24.8833 6.4345 22.214C6.4345 20.0398 7.0503 17.3881 8.47796 15.885Z" fill="white"/>
<path d="M27.2469 28.6788C25.7388 24.9865 23.6124 21.2741 20.5535 18.7305C19.8912 17.5295 18.9078 16.5365 17.7132 15.8626C20.7671 17.3028 23.2907 19.8088 25.1506 22.6339L21.868 13.5527L21.2774 11.934L19.2817 6.43955L16.0719 15.1136C15.7916 15.0035 15.5055 14.9087 15.2148 14.8296L18.7538 5.16772L16.919 0H19.1987C19.9577 0.00160432 20.6975 0.238675 21.3161 0.678514C21.9346 1.11835 22.4015 1.73929 22.6522 2.45567L31.8918 27.8997C32.5411 29.5674 33.8114 30.9188 35.4358 31.6699L36.0944 31.9212H25.3266L25.4975 31.8308C26.8095 31.1672 27.4228 29.9482 27.2469 28.6788Z" fill="white"/>
</g>
<defs>
<clipPath id="clip0_151_463">
<rect width="36.0936" height="48" fill="white"/>
</clipPath>
</defs>
</svg>
